<svg xmlns="http://www.w3.org/2000/svg" xmlns:xlink="http://www.w3.org/1999/xlink" contentStyleType="text/css" height="793px" preserveAspectRatio="none" style="width:643px;height:793px;background:#FFFFFF;" version="1.1" viewBox="0 0 643 793" width="643px" zoomAndPan="magnify"><defs/><g><!--class BankEntity--><g id="elem_BankEntity"><rect codeLine="2" fill="#F1F1F1" height="200.5433" id="BankEntity" rx="2.5" ry="2.5" style="stroke:#181818;stroke-width:0.5;" width="238.6872" x="7" y="7"/><ellipse cx="86.9047" cy="23" fill="#ADD1B2" rx="11" ry="11" style="stroke:#181818;stroke-width:1.0;"/><path d="M86.3735,29.9219 Q84.6235,29.9219 83.4828,29.1875 Q82.3578,28.4375 81.7953,27.0938 Q81.2485,25.7344 81.2485,23.9375 Q81.2485,21.9063 81.9047,20.4531 Q82.561,19 83.8422,18.2188 Q85.1235,17.4375 86.9985,17.4375 Q87.8891,17.4375 88.561,17.625 Q89.2328,17.7969 89.9203,18.1406 L89.1078,20.1563 Q88.4828,19.8438 87.936,19.7188 Q87.4047,19.5938 86.9203,19.5938 Q85.7485,19.5938 85.0453,20.125 Q84.3422,20.6563 84.0453,21.6094 Q83.7485,22.5625 83.7485,23.8281 Q83.7485,25.8438 84.4672,26.8125 Q85.186,27.7656 86.7797,27.7656 Q87.3735,27.7656 87.9985,27.6094 Q88.6235,27.4531 89.4516,27.0781 L89.4516,29.2969 Q88.7172,29.6094 87.9203,29.7656 Q87.1391,29.9219 86.3735,29.9219 Z " fill="#000000"/><text fill="#000000" font-family="sans-serif" font-size="14" lengthAdjust="spacing" textLength="70.3777" x="107.4047" y="28.432">BankEntity</text><line style="stroke:#181818;stroke-width:0.5;" x1="8" x2="244.6872" y1="39" y2="39"/><ellipse cx="18" cy="54.034" fill="none" rx="3" ry="3" style="stroke:#038048;stroke-width:1.0;"/><text fill="#000000" font-family="sans-serif" font-size="14" lengthAdjust="spacing" textLength="48.9298" x="27" y="57.9659">Long id</text><ellipse cx="18" cy="73.1019" fill="none" rx="3" ry="3" style="stroke:#038048;stroke-width:1.0;"/><text fill="#000000" font-family="sans-serif" font-size="14" lengthAdjust="spacing" textLength="95.5356" x="27" y="77.0339">String nombre</text><ellipse cx="18" cy="92.1698" fill="none" rx="3" ry="3" style="stroke:#038048;stroke-width:1.0;"/><text fill="#000000" font-family="sans-serif" font-size="14" lengthAdjust="spacing" textLength="119.6996" x="27" y="96.1018">String codigoSwift</text><ellipse cx="18" cy="111.2377" fill="none" rx="3" ry="3" style="stroke:#038048;stroke-width:1.0;"/><text fill="#000000" font-family="sans-serif" font-size="14" lengthAdjust="spacing" textLength="69.8177" x="27" y="115.1697">String pais</text><ellipse cx="18" cy="130.3056" fill="none" rx="3" ry="3" style="stroke:#038048;stroke-width:1.0;"/><text fill="#000000" font-family="sans-serif" font-size="14" lengthAdjust="spacing" textLength="136.8075" x="27" y="134.2376">String fechaCreacion</text><ellipse cx="18" cy="149.3735" fill="none" rx="3" ry="3" style="stroke:#038048;stroke-width:1.0;"/><text fill="#000000" font-family="sans-serif" font-size="14" lengthAdjust="spacing" textLength="87.6257" x="27" y="153.3055">String estado</text><line style="stroke:#181818;stroke-width:1.0;" x1="8" x2="244.6872" y1="161.4075" y2="161.4075"/><ellipse cx="18" cy="176.4415" fill="none" rx="3" ry="3" style="stroke:#038048;stroke-width:1.0;"/><text fill="#000000" font-family="sans-serif" font-size="14" lengthAdjust="spacing" textLength="180.1933" x="27" y="180.3734">List&lt;BankAccount&gt; cuentas</text><ellipse cx="18" cy="195.5094" fill="none" rx="3" ry="3" style="stroke:#038048;stroke-width:1.0;"/><text fill="#000000" font-family="sans-serif" font-size="14" lengthAdjust="spacing" textLength="212.6872" x="27" y="199.4414">List&lt;BankEmployee&gt; empleados</text></g><!--class BankAccount--><g id="elem_BankAccount"><rect codeLine="14" fill="#F1F1F1" height="238.6792" id="BankAccount" rx="2.5" ry="2.5" style="stroke:#181818;stroke-width:0.5;" width="286.791" x="244" y="287"/><ellipse cx="339.9977" cy="303" fill="#ADD1B2" rx="11" ry="11" style="stroke:#181818;stroke-width:1.0;"/><path d="M339.4664,309.9219 Q337.7164,309.9219 336.5758,309.1875 Q335.4508,308.4375 334.8883,307.0938 Q334.3414,305.7344 334.3414,303.9375 Q334.3414,301.9063 334.9977,300.4531 Q335.6539,299 336.9352,298.2188 Q338.2164,297.4375 340.0914,297.4375 Q340.9821,297.4375 341.6539,297.625 Q342.3258,297.7969 343.0133,298.1406 L342.2008,300.1563 Q341.5758,299.8438 341.0289,299.7188 Q340.4977,299.5938 340.0133,299.5938 Q338.8414,299.5938 338.1383,300.125 Q337.4352,300.6563 337.1383,301.6094 Q336.8414,302.5625 336.8414,303.8281 Q336.8414,305.8438 337.5602,306.8125 Q338.2789,307.7656 339.8727,307.7656 Q340.4664,307.7656 341.0914,307.6094 Q341.7164,307.4531 342.5446,307.0781 L342.5446,309.2969 Q341.8102,309.6094 341.0133,309.7656 Q340.2321,309.9219 339.4664,309.9219 Z " fill="#000000"/><text fill="#000000" font-family="sans-serif" font-size="14" lengthAdjust="spacing" textLength="86.2957" x="360.4977" y="308.432">BankAccount</text><line style="stroke:#181818;stroke-width:0.5;" x1="245" x2="529.791" y1="319" y2="319"/><ellipse cx="255" cy="334.034" fill="none" rx="3" ry="3" style="stroke:#038048;stroke-width:1.0;"/><text fill="#000000" font-family="sans-serif" font-size="14" lengthAdjust="spacing" textLength="48.9298" x="264" y="337.9659">Long id</text><ellipse cx="255" cy="353.1019" fill="none" rx="3" ry="3" style="stroke:#038048;stroke-width:1.0;"/><text fill="#000000" font-family="sans-serif" font-size="14" lengthAdjust="spacing" textLength="142.5334" x="264" y="357.0339">String numeroCuenta</text><ellipse cx="255" cy="372.1698" fill="none" rx="3" ry="3" style="stroke:#038048;stroke-width:1.0;"/><text fill="#000000" font-family="sans-serif" font-size="14" lengthAdjust="spacing" textLength="115.7376" x="264" y="376.1018">String tipoCuenta</text><ellipse cx="255" cy="391.2377" fill="none" rx="3" ry="3" style="stroke:#038048;stroke-width:1.0;"/><text fill="#000000" font-family="sans-serif" font-size="14" lengthAdjust="spacing" textLength="86.3517" x="264" y="395.1697">Double saldo</text><ellipse cx="255" cy="410.3056" fill="none" rx="3" ry="3" style="stroke:#038048;stroke-width:1.0;"/><text fill="#000000" font-family="sans-serif" font-size="14" lengthAdjust="spacing" textLength="97.6076" x="264" y="414.2376">String moneda</text><ellipse cx="255" cy="429.3735" fill="none" rx="3" ry="3" style="stroke:#038048;stroke-width:1.0;"/><text fill="#000000" font-family="sans-serif" font-size="14" lengthAdjust="spacing" textLength="87.6257" x="264" y="433.3055">String estado</text><line style="stroke:#181818;stroke-width:1.0;" x1="245" x2="529.791" y1="441.4075" y2="441.4075"/><ellipse cx="255" cy="456.4415" fill="none" rx="3" ry="3" style="stroke:#038048;stroke-width:1.0;"/><text fill="#000000" font-family="sans-serif" font-size="14" lengthAdjust="spacing" textLength="143.9054" x="264" y="460.3734">BankEntity bankEntity</text><ellipse cx="255" cy="475.5094" fill="none" rx="3" ry="3" style="stroke:#038048;stroke-width:1.0;"/><text fill="#000000" font-family="sans-serif" font-size="14" lengthAdjust="spacing" textLength="130.5075" x="264" y="479.4414">Customer customer</text><ellipse cx="255" cy="494.5773" fill="none" rx="3" ry="3" style="stroke:#038048;stroke-width:1.0;"/><text fill="#000000" font-family="sans-serif" font-size="14" lengthAdjust="spacing" textLength="255.667" x="264" y="498.5093">List&lt;Transaction&gt; transaccionesOrigen</text><ellipse cx="255" cy="513.6452" fill="none" rx="3" ry="3" style="stroke:#038048;stroke-width:1.0;"/><text fill="#000000" font-family="sans-serif" font-size="14" lengthAdjust="spacing" textLength="260.791" x="264" y="517.5772">List&lt;Transaction&gt; transaccionesDestino</text></g><!--class Customer--><g id="elem_Customer"><rect codeLine="28" fill="#F1F1F1" height="181.4754" id="Customer" rx="2.5" ry="2.5" style="stroke:#181818;stroke-width:0.5;" width="206.1933" x="284.5" y="17"/><ellipse cx="351.0978" cy="33" fill="#ADD1B2" rx="11" ry="11" style="stroke:#181818;stroke-width:1.0;"/><path d="M350.5665,39.9219 Q348.8165,39.9219 347.6759,39.1875 Q346.5509,38.4375 345.9884,37.0938 Q345.4415,35.7344 345.4415,33.9375 Q345.4415,31.9063 346.0978,30.4531 Q346.754,29 348.0353,28.2188 Q349.3165,27.4375 351.1915,27.4375 Q352.0821,27.4375 352.754,27.625 Q353.4259,27.7969 354.1134,28.1406 L353.3009,30.1563 Q352.6759,29.8438 352.129,29.7188 Q351.5978,29.5938 351.1134,29.5938 Q349.9415,29.5938 349.2384,30.125 Q348.5353,30.6563 348.2384,31.6094 Q347.9415,32.5625 347.9415,33.8281 Q347.9415,35.8438 348.6603,36.8125 Q349.379,37.7656 350.9728,37.7656 Q351.5665,37.7656 352.1915,37.6094 Q352.8165,37.4531 353.6446,37.0781 L353.6446,39.2969 Q352.9103,39.6094 352.1134,39.7656 Q351.3321,39.9219 350.5665,39.9219 Z " fill="#000000"/><text fill="#000000" font-family="sans-serif" font-size="14" lengthAdjust="spacing" textLength="64.4978" x="371.5978" y="38.432">Customer</text><line style="stroke:#181818;stroke-width:0.5;" x1="285.5" x2="489.6933" y1="49" y2="49"/><ellipse cx="295.5" cy="64.034" fill="none" rx="3" ry="3" style="stroke:#038048;stroke-width:1.0;"/><text fill="#000000" font-family="sans-serif" font-size="14" lengthAdjust="spacing" textLength="48.9298" x="304.5" y="67.9659">Long id</text><ellipse cx="295.5" cy="83.1019" fill="none" rx="3" ry="3" style="stroke:#038048;stroke-width:1.0;"/><text fill="#000000" font-family="sans-serif" font-size="14" lengthAdjust="spacing" textLength="159.5854" x="304.5" y="87.0339">String nombreCompleto</text><ellipse cx="295.5" cy="102.1698" fill="none" rx="3" ry="3" style="stroke:#038048;stroke-width:1.0;"/><text fill="#000000" font-family="sans-serif" font-size="14" lengthAdjust="spacing" textLength="130.9275" x="304.5" y="106.1018">String identificacion</text><ellipse cx="295.5" cy="121.2377" fill="none" rx="3" ry="3" style="stroke:#038048;stroke-width:1.0;"/><text fill="#000000" font-family="sans-serif" font-size="14" lengthAdjust="spacing" textLength="103.1096" x="304.5" y="125.1697">String direccion</text><ellipse cx="295.5" cy="140.3056" fill="none" rx="3" ry="3" style="stroke:#038048;stroke-width:1.0;"/><text fill="#000000" font-family="sans-serif" font-size="14" lengthAdjust="spacing" textLength="97.9016" x="304.5" y="144.2376">String telefono</text><ellipse cx="295.5" cy="159.3735" fill="none" rx="3" ry="3" style="stroke:#038048;stroke-width:1.0;"/><text fill="#000000" font-family="sans-serif" font-size="14" lengthAdjust="spacing" textLength="86.1557" x="304.5" y="163.3055">String correo</text><line style="stroke:#181818;stroke-width:1.0;" x1="285.5" x2="489.6933" y1="171.4075" y2="171.4075"/><ellipse cx="295.5" cy="186.4415" fill="none" rx="3" ry="3" style="stroke:#038048;stroke-width:1.0;"/><text fill="#000000" font-family="sans-serif" font-size="14" lengthAdjust="spacing" textLength="180.1933" x="304.5" y="190.3734">List&lt;BankAccount&gt; cuentas</text></g><!--class Transaction--><g id="elem_Transaction"><rect codeLine="39" fill="#F1F1F1" height="181.4754" id="Transaction" rx="2.5" ry="2.5" style="stroke:#181818;stroke-width:0.5;" width="241.7811" x="266.5" y="605"/><ellipse cx="344.5707" cy="621" fill="#ADD1B2" rx="11" ry="11" style="stroke:#181818;stroke-width:1.0;"/><path d="M344.0395,627.9219 Q342.2895,627.9219 341.1488,627.1875 Q340.0238,626.4375 339.4613,625.0938 Q338.9145,623.7344 338.9145,621.9375 Q338.9145,619.9063 339.5707,618.4531 Q340.227,617 341.5082,616.2188 Q342.7895,615.4375 344.6645,615.4375 Q345.5551,615.4375 346.227,615.625 Q346.8988,615.7969 347.5863,616.1406 L346.7738,618.1563 Q346.1488,617.8438 345.602,617.7188 Q345.0707,617.5938 344.5863,617.5938 Q343.4145,617.5938 342.7113,618.125 Q342.0082,618.6563 341.7113,619.6094 Q341.4145,620.5625 341.4145,621.8281 Q341.4145,623.8438 342.1332,624.8125 Q342.852,625.7656 344.4457,625.7656 Q345.0395,625.7656 345.6645,625.6094 Q346.2895,625.4531 347.1176,625.0781 L347.1176,627.2969 Q346.3832,627.6094 345.5863,627.7656 Q344.8051,627.9219 344.0395,627.9219 Z " fill="#000000"/><text fill="#000000" font-family="sans-serif" font-size="14" lengthAdjust="spacing" textLength="77.1397" x="365.0707" y="626.432">Transaction</text><line style="stroke:#181818;stroke-width:0.5;" x1="267.5" x2="507.2811" y1="637" y2="637"/><ellipse cx="277.5" cy="652.034" fill="none" rx="3" ry="3" style="stroke:#038048;stroke-width:1.0;"/><text fill="#000000" font-family="sans-serif" font-size="14" lengthAdjust="spacing" textLength="48.9298" x="286.5" y="655.9659">Long id</text><ellipse cx="277.5" cy="671.1019" fill="none" rx="3" ry="3" style="stroke:#038048;stroke-width:1.0;"/><text fill="#000000" font-family="sans-serif" font-size="14" lengthAdjust="spacing" textLength="94.8356" x="286.5" y="675.0339">Double monto</text><ellipse cx="277.5" cy="690.1698" fill="none" rx="3" ry="3" style="stroke:#038048;stroke-width:1.0;"/><text fill="#000000" font-family="sans-serif" font-size="14" lengthAdjust="spacing" textLength="68.7818" x="286.5" y="694.1018">String tipo</text><ellipse cx="277.5" cy="709.2377" fill="none" rx="3" ry="3" style="stroke:#038048;stroke-width:1.0;"/><text fill="#000000" font-family="sans-serif" font-size="14" lengthAdjust="spacing" textLength="215.7811" x="286.5" y="713.1697">LocalDateTime fechaTransaccion</text><ellipse cx="277.5" cy="728.3056" fill="none" rx="3" ry="3" style="stroke:#038048;stroke-width:1.0;"/><text fill="#000000" font-family="sans-serif" font-size="14" lengthAdjust="spacing" textLength="87.6257" x="286.5" y="732.2376">String estado</text><line style="stroke:#181818;stroke-width:1.0;" x1="267.5" x2="507.2811" y1="740.3396" y2="740.3396"/><ellipse cx="277.5" cy="755.3735" fill="none" rx="3" ry="3" style="stroke:#038048;stroke-width:1.0;"/><text fill="#000000" font-family="sans-serif" font-size="14" lengthAdjust="spacing" textLength="180.2493" x="286.5" y="759.3055">BankAccount cuentaOrigen</text><ellipse cx="277.5" cy="774.4415" fill="none" rx="3" ry="3" style="stroke:#038048;stroke-width:1.0;"/><text fill="#000000" font-family="sans-serif" font-size="14" lengthAdjust="spacing" textLength="185.3733" x="286.5" y="778.3734">BankAccount cuentaDestino</text></g><!--class BankEmployee--><g id="elem_BankEmployee"><rect codeLine="50" fill="#F1F1F1" height="143.3396" id="BankEmployee" rx="2.5" ry="2.5" style="stroke:#181818;stroke-width:0.5;" width="169.9054" x="38.5" y="335"/><ellipse cx="71.6466" cy="351" fill="#ADD1B2" rx="11" ry="11" style="stroke:#181818;stroke-width:1.0;"/><path d="M71.1154,357.9219 Q69.3654,357.9219 68.2247,357.1875 Q67.0997,356.4375 66.5372,355.0938 Q65.9904,353.7344 65.9904,351.9375 Q65.9904,349.9063 66.6466,348.4531 Q67.3029,347 68.5841,346.2188 Q69.8654,345.4375 71.7404,345.4375 Q72.631,345.4375 73.3029,345.625 Q73.9747,345.7969 74.6622,346.1406 L73.8497,348.1563 Q73.2247,347.8438 72.6779,347.7188 Q72.1466,347.5938 71.6622,347.5938 Q70.4904,347.5938 69.7872,348.125 Q69.0841,348.6563 68.7872,349.6094 Q68.4904,350.5625 68.4904,351.8281 Q68.4904,353.8438 69.2091,354.8125 Q69.9279,355.7656 71.5216,355.7656 Q72.1154,355.7656 72.7404,355.6094 Q73.3654,355.4531 74.1935,355.0781 L74.1935,357.2969 Q73.4591,357.6094 72.6622,357.7656 Q71.881,357.9219 71.1154,357.9219 Z " fill="#000000"/><text fill="#000000" font-family="sans-serif" font-size="14" lengthAdjust="spacing" textLength="97.5796" x="89.6792" y="356.432">BankEmployee</text><line style="stroke:#181818;stroke-width:0.5;" x1="39.5" x2="207.4054" y1="367" y2="367"/><ellipse cx="49.5" cy="382.034" fill="none" rx="3" ry="3" style="stroke:#038048;stroke-width:1.0;"/><text fill="#000000" font-family="sans-serif" font-size="14" lengthAdjust="spacing" textLength="48.9298" x="58.5" y="385.9659">Long id</text><ellipse cx="49.5" cy="401.1019" fill="none" rx="3" ry="3" style="stroke:#038048;stroke-width:1.0;"/><text fill="#000000" font-family="sans-serif" font-size="14" lengthAdjust="spacing" textLength="95.5356" x="58.5" y="405.0339">String nombre</text><ellipse cx="49.5" cy="420.1698" fill="none" rx="3" ry="3" style="stroke:#038048;stroke-width:1.0;"/><text fill="#000000" font-family="sans-serif" font-size="14" lengthAdjust="spacing" textLength="60.8998" x="58.5" y="424.1018">String rol</text><ellipse cx="49.5" cy="439.2377" fill="none" rx="3" ry="3" style="stroke:#038048;stroke-width:1.0;"/><text fill="#000000" font-family="sans-serif" font-size="14" lengthAdjust="spacing" textLength="129.8355" x="58.5" y="443.1697">String fechaIngreso</text><line style="stroke:#181818;stroke-width:1.0;" x1="39.5" x2="207.4054" y1="451.2717" y2="451.2717"/><ellipse cx="49.5" cy="466.3056" fill="none" rx="3" ry="3" style="stroke:#038048;stroke-width:1.0;"/><text fill="#000000" font-family="sans-serif" font-size="14" lengthAdjust="spacing" textLength="143.9054" x="58.5" y="470.2376">BankEntity bankEntity</text></g><!--link BankEntity to BankAccount--><g id="link_BankEntity_BankAccount"><path codeLine="60" d="M214.14,208.22 C236.28,233.42 260.27,260.72 283.14,286.75 " fill="none" id="BankEntity-BankAccount" style="stroke:#181818;stroke-width:1.0;"/><text fill="#000000" font-family="sans-serif" font-size="13" lengthAdjust="spacing" textLength="52.793" x="258.5" y="252.897">gestiona</text><text fill="#000000" font-family="sans-serif" font-size="13" lengthAdjust="spacing" textLength="7.436" x="212.8183" y="229.4943">1</text><text fill="#000000" font-family="sans-serif" font-size="13" lengthAdjust="spacing" textLength="21.567" x="254.4489" y="275.0647">0..*</text></g><!--link Customer to BankAccount--><g id="link_Customer_BankAccount"><path codeLine="61" d="M387.5,198.01 C387.5,225.94 387.5,257.19 387.5,286.79 " fill="none" id="Customer-BankAccount" style="stroke:#181818;stroke-width:1.0;"/><text fill="#000000" font-family="sans-serif" font-size="13" lengthAdjust="spacing" textLength="36.751" x="388.5" y="252.897">posee</text><text fill="#000000" font-family="sans-serif" font-size="13" lengthAdjust="spacing" textLength="7.436" x="380.2096" y="220.4256">1</text><text fill="#000000" font-family="sans-serif" font-size="13" lengthAdjust="spacing" textLength="21.567" x="365.8206" y="275.1074">0..*</text></g><!--link BankAccount to Transaction--><g id="link_BankAccount_Transaction"><path codeLine="62" d="M387.5,526.31 C387.5,552.52 387.5,579.87 387.5,604.71 " fill="none" id="BankAccount-Transaction" style="stroke:#181818;stroke-width:1.0;"/><text fill="#000000" font-family="sans-serif" font-size="13" lengthAdjust="spacing" textLength="40.105" x="388.5" y="570.897">realiza</text><text fill="#000000" font-family="sans-serif" font-size="13" lengthAdjust="spacing" textLength="7.436" x="380.3163" y="547.6546">1</text><text fill="#000000" font-family="sans-serif" font-size="13" lengthAdjust="spacing" textLength="21.567" x="365.6314" y="593.0842">0..*</text></g><!--link BankEntity to BankEmployee--><g id="link_BankEntity_BankEmployee"><path codeLine="63" d="M125.49,208.22 C125.07,249.68 124.6,296.84 124.22,334.65 " fill="none" id="BankEntity-BankEmployee" style="stroke:#181818;stroke-width:1.0;"/><text fill="#000000" font-family="sans-serif" font-size="13" lengthAdjust="spacing" textLength="45.461" x="126.5" y="252.897">emplea</text><text fill="#000000" font-family="sans-serif" font-size="13" lengthAdjust="spacing" textLength="7.436" x="118.2121" y="229.4943">1</text><text fill="#000000" font-family="sans-serif" font-size="13" lengthAdjust="spacing" textLength="21.567" x="102.2456" y="323.2798">0..*</text></g><!--link Transaction to Transaction--><g id="link_Transaction_Transaction"><path codeLine="64" d="M508.51,672.75 C529.18,675.85 543.5,683.44 543.5,695.5 C543.5,707.56 529.18,715.15 508.51,718.25 " fill="none" id="Transaction-Transaction" style="stroke:#181818;stroke-width:1.0;"/><text fill="#000000" font-family="sans-serif" font-size="13" lengthAdjust="spacing" textLength="81.0421" x="549.5" y="700.897">transferencia</text><text fill="#000000" font-family="sans-serif" font-size="13" lengthAdjust="spacing" textLength="21.84" x="516.1435" y="667.847">0..1</text><text fill="#000000" font-family="sans-serif" font-size="13" lengthAdjust="spacing" textLength="21.84" x="516.1435" y="715.9775">0..1</text></g><!--SRC=[ZLFDJkD03BxdAQov8850onMXIj1oM0a92Ve2quaJB2PsDJCHwgvuAXvXNsoTXAQJLfJUFD_uv_Dd-mmMM16Jet-V32M2ypPY12SCDWLQjKaYR22Wjuw4CHQTHuHxosyFd2Xju6y1SF4eN0ELdVcYSVfWQLO1Cy19IRMyl5ELCdHjAMRF2jshdGVigsKuncHBKU3oiYz7CTrs7EwSavRJ35oBd6oSV3uqQoyRn1cWMgW9Ol5HP1ryHN_RGjjWa7cVEOCJhJDm8UtA8qJhUtvRfqR5Aktt7MG2haQp-vYtCOdMrOu6Osnf6In7wv8gCuCqF8QXF0MgaKzmN2WBOjcfC5OxEiMvTFgbl3ygLG2goErFggI0RWzBwB4IbiasX82d37IacdLrmFPh22hwX6GtgS7JMR-m2PVKuB1ZovqinuUqtP61pqxfmxy3SVCTFFbCWlZzU_ZDTS3uq-vesJDu7WyLb5BO7dIHXPXhetd0_BgwEZUJCxW1KtSz25jJZ9jnr7yj4T4KEJhrpwUc_dhPdlvOSvpGA9f63AThYZnHvxeBkZweqkzyXG7PaJN_0G00]--></g></svg>