<svg xmlns="http://www.w3.org/2000/svg" xmlns:xlink="http://www.w3.org/1999/xlink" contentStyleType="text/css" height="355px" preserveAspectRatio="none" style="width:1696px;height:355px;background:#FFFFFF;" version="1.1" viewBox="0 0 1696 355" width="1696px" zoomAndPan="magnify"><defs/><g><!--cluster Controllers--><g id="cluster_Controllers"><path d="M8.5,6.602 L87.5077,6.602 A3.75,3.75 0 0 1 90.0077,9.102 L97.0077,31.6699 L1686.5,31.6699 A2.5,2.5 0 0 1 1689,34.1699 L1689,220.102 A2.5,2.5 0 0 1 1686.5,222.602 L8.5,222.602 A2.5,2.5 0 0 1 6,220.102 L6,9.102 A2.5,2.5 0 0 1 8.5,6.602 " fill="none" style="stroke:#000000;stroke-width:1.5;"/><line style="stroke:#000000;stroke-width:1.5;" x1="6" x2="97.0077" y1="31.6699" y2="31.6699"/><text fill="#000000" font-family="sans-serif" font-size="14" font-weight="bold" lengthAdjust="spacing" textLength="78.0077" x="10" y="23.5679">Controllers</text></g><!--cluster Services--><g id="cluster_Services"><path d="M513.5,246.602 L571.5078,246.602 A3.75,3.75 0 0 1 574.0078,249.102 L581.0078,271.6699 L1470.5,271.6699 A2.5,2.5 0 0 1 1473,274.1699 L1473,346.102 A2.5,2.5 0 0 1 1470.5,348.602 L513.5,348.602 A2.5,2.5 0 0 1 511,346.102 L511,249.102 A2.5,2.5 0 0 1 513.5,246.602 " fill="none" style="stroke:#000000;stroke-width:1.5;"/><line style="stroke:#000000;stroke-width:1.5;" x1="511" x2="581.0078" y1="271.6699" y2="271.6699"/><text fill="#000000" font-family="sans-serif" font-size="14" font-weight="bold" lengthAdjust="spacing" textLength="57.0078" x="515" y="263.5679">Services</text></g><!--class BankAccountController--><g id="elem_BankAccountController"><rect codeLine="3" fill="#F1F1F1" height="162.4075" id="BankAccountController" rx="2.5" ry="2.5" style="stroke:#181818;stroke-width:0.5;" width="234.9632" x="1437.5" y="44.602"/><ellipse cx="1475.2204" cy="60.602" fill="#ADD1B2" rx="11" ry="11" style="stroke:#181818;stroke-width:1.0;"/><path d="M1474.6891,67.5239 Q1472.9391,67.5239 1471.7985,66.7895 Q1470.6735,66.0395 1470.111,64.6957 Q1469.5641,63.3364 1469.5641,61.5395 Q1469.5641,59.5082 1470.2204,58.0551 Q1470.8766,56.602 1472.1579,55.8207 Q1473.4391,55.0395 1475.3141,55.0395 Q1476.2048,55.0395 1476.8766,55.227 Q1477.5485,55.3989 1478.236,55.7426 L1477.4235,57.7582 Q1476.7985,57.4457 1476.2516,57.3207 Q1475.7204,57.1957 1475.236,57.1957 Q1474.0641,57.1957 1473.361,57.727 Q1472.6579,58.2582 1472.361,59.2114 Q1472.0641,60.1645 1472.0641,61.4301 Q1472.0641,63.4457 1472.7829,64.4145 Q1473.5016,65.3676 1475.0954,65.3676 Q1475.6891,65.3676 1476.3141,65.2114 Q1476.9391,65.0551 1477.7673,64.6801 L1477.7673,66.8989 Q1477.0329,67.2114 1476.236,67.3676 Q1475.4548,67.5239 1474.6891,67.5239 Z " fill="#000000"/><text fill="#000000" font-family="sans-serif" font-size="14" lengthAdjust="spacing" textLength="152.4734" x="1494.2694" y="66.034">BankAccountController</text><line style="stroke:#181818;stroke-width:0.5;" x1="1438.5" x2="1671.4632" y1="76.602" y2="76.602"/><rect fill="none" height="6" style="stroke:#C82930;stroke-width:1.0;" width="6" x="1445.5" y="88.6359"/><text fill="#000000" font-family="sans-serif" font-size="14" lengthAdjust="spacing" textLength="182.3633" x="1457.5" y="95.5679">BankAccountService service</text><line style="stroke:#181818;stroke-width:0.5;" x1="1438.5" x2="1671.4632" y1="103.6699" y2="103.6699"/><ellipse cx="1448.5" cy="118.7039" fill="#84BE84" rx="3" ry="3" style="stroke:#038048;stroke-width:1.0;"/><text fill="#000000" font-family="sans-serif" font-size="14" lengthAdjust="spacing" textLength="106.0496" x="1457.5" y="122.6358">getAllAccounts()</text><ellipse cx="1448.5" cy="137.7718" fill="#84BE84" rx="3" ry="3" style="stroke:#038048;stroke-width:1.0;"/><text fill="#000000" font-family="sans-serif" font-size="14" lengthAdjust="spacing" textLength="124.9915" x="1457.5" y="141.7038">getAccountById(id)</text><ellipse cx="1448.5" cy="156.8397" fill="#84BE84" rx="3" ry="3" style="stroke:#038048;stroke-width:1.0;"/><text fill="#000000" font-family="sans-serif" font-size="14" lengthAdjust="spacing" textLength="183.8753" x="1457.5" y="160.7717">createAccount(accountDTO)</text><ellipse cx="1448.5" cy="175.9076" fill="#84BE84" rx="3" ry="3" style="stroke:#038048;stroke-width:1.0;"/><text fill="#000000" font-family="sans-serif" font-size="14" lengthAdjust="spacing" textLength="208.9632" x="1457.5" y="179.8396">updateAccount(id, accountDTO)</text><ellipse cx="1448.5" cy="194.9755" fill="#84BE84" rx="3" ry="3" style="stroke:#038048;stroke-width:1.0;"/><text fill="#000000" font-family="sans-serif" font-size="14" lengthAdjust="spacing" textLength="114.7995" x="1457.5" y="198.9075">deleteAccount(id)</text></g><!--class BankEmployeeController--><g id="elem_BankEmployeeController"><rect codeLine="12" fill="#F1F1F1" height="162.4075" id="BankEmployeeController" rx="2.5" ry="2.5" style="stroke:#181818;stroke-width:0.5;" width="258.7351" x="1143.5" y="44.602"/><ellipse cx="1186.84" cy="60.602" fill="#ADD1B2" rx="11" ry="11" style="stroke:#181818;stroke-width:1.0;"/><path d="M1186.3087,67.5239 Q1184.5587,67.5239 1183.4181,66.7895 Q1182.2931,66.0395 1181.7306,64.6957 Q1181.1837,63.3364 1181.1837,61.5395 Q1181.1837,59.5082 1181.84,58.0551 Q1182.4962,56.602 1183.7775,55.8207 Q1185.0587,55.0395 1186.9337,55.0395 Q1187.8243,55.0395 1188.4962,55.227 Q1189.1681,55.3989 1189.8556,55.7426 L1189.0431,57.7582 Q1188.4181,57.4457 1187.8712,57.3207 Q1187.34,57.1957 1186.8556,57.1957 Q1185.6837,57.1957 1184.9806,57.727 Q1184.2775,58.2582 1183.9806,59.2114 Q1183.6837,60.1645 1183.6837,61.4301 Q1183.6837,63.4457 1184.4025,64.4145 Q1185.1212,65.3676 1186.715,65.3676 Q1187.3087,65.3676 1187.9337,65.2114 Q1188.5587,65.0551 1189.3868,64.6801 L1189.3868,66.8989 Q1188.6525,67.2114 1187.8556,67.3676 Q1187.0743,67.5239 1186.3087,67.5239 Z " fill="#000000"/><text fill="#000000" font-family="sans-serif" font-size="14" lengthAdjust="spacing" textLength="163.7574" x="1207.1377" y="66.034">BankEmployeeController</text><line style="stroke:#181818;stroke-width:0.5;" x1="1144.5" x2="1401.2351" y1="76.602" y2="76.602"/><rect fill="none" height="6" style="stroke:#C82930;stroke-width:1.0;" width="6" x="1151.5" y="88.6359"/><text fill="#000000" font-family="sans-serif" font-size="14" lengthAdjust="spacing" textLength="193.6472" x="1163.5" y="95.5679">BankEmployeeService service</text><line style="stroke:#181818;stroke-width:0.5;" x1="1144.5" x2="1401.2351" y1="103.6699" y2="103.6699"/><ellipse cx="1154.5" cy="118.7039" fill="#84BE84" rx="3" ry="3" style="stroke:#038048;stroke-width:1.0;"/><text fill="#000000" font-family="sans-serif" font-size="14" lengthAdjust="spacing" textLength="117.3335" x="1163.5" y="122.6358">getAllEmployees()</text><ellipse cx="1154.5" cy="137.7718" fill="#84BE84" rx="3" ry="3" style="stroke:#038048;stroke-width:1.0;"/><text fill="#000000" font-family="sans-serif" font-size="14" lengthAdjust="spacing" textLength="136.2755" x="1163.5" y="141.7038">getEmployeeById(id)</text><ellipse cx="1154.5" cy="156.8397" fill="#84BE84" rx="3" ry="3" style="stroke:#038048;stroke-width:1.0;"/><text fill="#000000" font-family="sans-serif" font-size="14" lengthAdjust="spacing" textLength="207.6472" x="1163.5" y="160.7717">createEmployee(employeeDTO)</text><ellipse cx="1154.5" cy="175.9076" fill="#84BE84" rx="3" ry="3" style="stroke:#038048;stroke-width:1.0;"/><text fill="#000000" font-family="sans-serif" font-size="14" lengthAdjust="spacing" textLength="232.7351" x="1163.5" y="179.8396">updateEmployee(id, employeeDTO)</text><ellipse cx="1154.5" cy="194.9755" fill="#84BE84" rx="3" ry="3" style="stroke:#038048;stroke-width:1.0;"/><text fill="#000000" font-family="sans-serif" font-size="14" lengthAdjust="spacing" textLength="126.0835" x="1163.5" y="198.9075">deleteEmployee(id)</text></g><!--class BankEntityController--><g id="elem_BankEntityController"><rect codeLine="21" fill="#F1F1F1" height="162.4075" id="BankEntityController" rx="2.5" ry="2.5" style="stroke:#181818;stroke-width:0.5;" width="195.3013" x="913.5" y="44.602"/><ellipse cx="940.5356" cy="60.602" fill="#ADD1B2" rx="11" ry="11" style="stroke:#181818;stroke-width:1.0;"/><path d="M940.0044,67.5239 Q938.2544,67.5239 937.1138,66.7895 Q935.9888,66.0395 935.4263,64.6957 Q934.8794,63.3364 934.8794,61.5395 Q934.8794,59.5082 935.5356,58.0551 Q936.1919,56.602 937.4731,55.8207 Q938.7544,55.0395 940.6294,55.0395 Q941.52,55.0395 942.1919,55.227 Q942.8638,55.3989 943.5513,55.7426 L942.7388,57.7582 Q942.1138,57.4457 941.5669,57.3207 Q941.0356,57.1957 940.5513,57.1957 Q939.3794,57.1957 938.6763,57.727 Q937.9731,58.2582 937.6763,59.2114 Q937.3794,60.1645 937.3794,61.4301 Q937.3794,63.4457 938.0981,64.4145 Q938.8169,65.3676 940.4106,65.3676 Q941.0044,65.3676 941.6294,65.2114 Q942.2544,65.0551 943.0825,64.6801 L943.0825,66.8989 Q942.3481,67.2114 941.5513,67.3676 Q940.77,67.5239 940.0044,67.5239 Z " fill="#000000"/><text fill="#000000" font-family="sans-serif" font-size="14" lengthAdjust="spacing" textLength="136.5555" x="957.2102" y="66.034">BankEntityController</text><line style="stroke:#181818;stroke-width:0.5;" x1="914.5" x2="1107.8013" y1="76.602" y2="76.602"/><rect fill="none" height="6" style="stroke:#C82930;stroke-width:1.0;" width="6" x="921.5" y="88.6359"/><text fill="#000000" font-family="sans-serif" font-size="14" lengthAdjust="spacing" textLength="166.4453" x="933.5" y="95.5679">BankEntityService service</text><line style="stroke:#181818;stroke-width:0.5;" x1="914.5" x2="1107.8013" y1="103.6699" y2="103.6699"/><ellipse cx="924.5" cy="118.7039" fill="#84BE84" rx="3" ry="3" style="stroke:#038048;stroke-width:1.0;"/><text fill="#000000" font-family="sans-serif" font-size="14" lengthAdjust="spacing" textLength="85.9177" x="933.5" y="122.6358">getAllBanks()</text><ellipse cx="924.5" cy="137.7718" fill="#84BE84" rx="3" ry="3" style="stroke:#038048;stroke-width:1.0;"/><text fill="#000000" font-family="sans-serif" font-size="14" lengthAdjust="spacing" textLength="104.8596" x="933.5" y="141.7038">getBankById(id)</text><ellipse cx="924.5" cy="156.8397" fill="#84BE84" rx="3" ry="3" style="stroke:#038048;stroke-width:1.0;"/><text fill="#000000" font-family="sans-serif" font-size="14" lengthAdjust="spacing" textLength="144.2134" x="933.5" y="160.7717">createBank(bankDTO)</text><ellipse cx="924.5" cy="175.9076" fill="#84BE84" rx="3" ry="3" style="stroke:#038048;stroke-width:1.0;"/><text fill="#000000" font-family="sans-serif" font-size="14" lengthAdjust="spacing" textLength="169.3013" x="933.5" y="179.8396">updateBank(id, bankDTO)</text><ellipse cx="924.5" cy="194.9755" fill="#84BE84" rx="3" ry="3" style="stroke:#038048;stroke-width:1.0;"/><text fill="#000000" font-family="sans-serif" font-size="14" lengthAdjust="spacing" textLength="94.6676" x="933.5" y="198.9075">deleteBank(id)</text></g><!--class CustomerController--><g id="elem_CustomerController"><rect codeLine="30" fill="#F1F1F1" height="162.4075" id="CustomerController" rx="2.5" ry="2.5" style="stroke:#181818;stroke-width:0.5;" width="256.4951" x="622" y="44.602"/><ellipse cx="680.6598" cy="60.602" fill="#ADD1B2" rx="11" ry="11" style="stroke:#181818;stroke-width:1.0;"/><path d="M680.1286,67.5239 Q678.3786,67.5239 677.2379,66.7895 Q676.1129,66.0395 675.5504,64.6957 Q675.0036,63.3364 675.0036,61.5395 Q675.0036,59.5082 675.6598,58.0551 Q676.3161,56.602 677.5973,55.8207 Q678.8786,55.0395 680.7536,55.0395 Q681.6442,55.0395 682.3161,55.227 Q682.9879,55.3989 683.6754,55.7426 L682.8629,57.7582 Q682.2379,57.4457 681.6911,57.3207 Q681.1598,57.1957 680.6754,57.1957 Q679.5036,57.1957 678.8004,57.727 Q678.0973,58.2582 677.8004,59.2114 Q677.5036,60.1645 677.5036,61.4301 Q677.5036,63.4457 678.2223,64.4145 Q678.9411,65.3676 680.5348,65.3676 Q681.1286,65.3676 681.7536,65.2114 Q682.3786,65.0551 683.2067,64.6801 L683.2067,66.8989 Q682.4723,67.2114 681.6754,67.3676 Q680.8942,67.5239 680.1286,67.5239 Z " fill="#000000"/><text fill="#000000" font-family="sans-serif" font-size="14" lengthAdjust="spacing" textLength="130.6755" x="701.1598" y="66.034">CustomerController</text><line style="stroke:#181818;stroke-width:0.5;" x1="623" x2="877.4951" y1="76.602" y2="76.602"/><rect fill="none" height="6" style="stroke:#C82930;stroke-width:1.0;" width="6" x="630" y="88.6359"/><text fill="#000000" font-family="sans-serif" font-size="14" lengthAdjust="spacing" textLength="160.5654" x="642" y="95.5679">CustomerService service</text><line style="stroke:#181818;stroke-width:0.5;" x1="623" x2="877.4951" y1="103.6699" y2="103.6699"/><ellipse cx="633" cy="118.7039" fill="#84BE84" rx="3" ry="3" style="stroke:#038048;stroke-width:1.0;"/><text fill="#000000" font-family="sans-serif" font-size="14" lengthAdjust="spacing" textLength="117.3336" x="642" y="122.6358">getAllCustomers()</text><ellipse cx="633" cy="137.7718" fill="#84BE84" rx="3" ry="3" style="stroke:#038048;stroke-width:1.0;"/><text fill="#000000" font-family="sans-serif" font-size="14" lengthAdjust="spacing" textLength="136.2755" x="642" y="141.7038">getCustomerById(id)</text><ellipse cx="633" cy="156.8397" fill="#84BE84" rx="3" ry="3" style="stroke:#038048;stroke-width:1.0;"/><text fill="#000000" font-family="sans-serif" font-size="14" lengthAdjust="spacing" textLength="205.4072" x="642" y="160.7717">createCustomer(customerDTO)</text><ellipse cx="633" cy="175.9076" fill="#84BE84" rx="3" ry="3" style="stroke:#038048;stroke-width:1.0;"/><text fill="#000000" font-family="sans-serif" font-size="14" lengthAdjust="spacing" textLength="230.4951" x="642" y="179.8396">updateCustomer(id, customerDTO)</text><ellipse cx="633" cy="194.9755" fill="#84BE84" rx="3" ry="3" style="stroke:#038048;stroke-width:1.0;"/><text fill="#000000" font-family="sans-serif" font-size="14" lengthAdjust="spacing" textLength="126.0835" x="642" y="198.9075">deleteCustomer(id)</text></g><!--class InternalTransactionController--><g id="elem_InternalTransactionController"><rect codeLine="39" fill="#F1F1F1" height="124.2717" id="InternalTransactionController" rx="2.5" ry="2.5" style="stroke:#181818;stroke-width:0.5;" width="247.6051" x="339" y="63.602"/><ellipse cx="363.0179" cy="79.602" fill="#ADD1B2" rx="11" ry="11" style="stroke:#181818;stroke-width:1.0;"/><path d="M362.4867,86.5239 Q360.7367,86.5239 359.5961,85.7895 Q358.4711,85.0395 357.9086,83.6957 Q357.3617,82.3364 357.3617,80.5395 Q357.3617,78.5082 358.0179,77.0551 Q358.6742,75.602 359.9554,74.8207 Q361.2367,74.0395 363.1117,74.0395 Q364.0023,74.0395 364.6742,74.227 Q365.3461,74.3989 366.0336,74.7426 L365.2211,76.7582 Q364.5961,76.4457 364.0492,76.3207 Q363.5179,76.1957 363.0336,76.1957 Q361.8617,76.1957 361.1586,76.727 Q360.4554,77.2582 360.1586,78.2114 Q359.8617,79.1645 359.8617,80.4301 Q359.8617,82.4457 360.5804,83.4145 Q361.2992,84.3676 362.8929,84.3676 Q363.4867,84.3676 364.1117,84.2114 Q364.7367,84.0551 365.5648,83.6801 L365.5648,85.8989 Q364.8304,86.2114 364.0336,86.3676 Q363.2523,86.5239 362.4867,86.5239 Z " fill="#000000"/><text fill="#000000" font-family="sans-serif" font-size="14" lengthAdjust="spacing" textLength="195.5653" x="379.0219" y="85.034">InternalTransactionController</text><line style="stroke:#181818;stroke-width:0.5;" x1="340" x2="585.6051" y1="95.602" y2="95.602"/><rect fill="none" height="6" style="stroke:#C82930;stroke-width:1.0;" width="6" x="347" y="107.6359"/><text fill="#000000" font-family="sans-serif" font-size="14" lengthAdjust="spacing" textLength="173.2073" x="359" y="114.5679">TransactionService service</text><rect fill="none" height="6" style="stroke:#C82930;stroke-width:1.0;" width="6" x="347" y="126.7039"/><text fill="#000000" font-family="sans-serif" font-size="14" lengthAdjust="spacing" textLength="181.0333" x="359" y="133.6358">RestTemplate restTemplate</text><line style="stroke:#181818;stroke-width:0.5;" x1="340" x2="585.6051" y1="141.7378" y2="141.7378"/><ellipse cx="350" cy="156.7718" fill="#84BE84" rx="3" ry="3" style="stroke:#038048;stroke-width:1.0;"/><text fill="#000000" font-family="sans-serif" font-size="14" lengthAdjust="spacing" textLength="221.6051" x="359" y="160.7038">getInternalTransactionDirectly(id)</text><ellipse cx="350" cy="175.8397" fill="#84BE84" rx="3" ry="3" style="stroke:#038048;stroke-width:1.0;"/><text fill="#000000" font-family="sans-serif" font-size="14" lengthAdjust="spacing" textLength="220.5272" x="359" y="179.7717">getInternalTransactionViaHttp(id)</text></g><!--class TransactionController--><g id="elem_TransactionController"><rect codeLine="46" fill="#F1F1F1" height="162.4075" id="TransactionController" rx="2.5" ry="2.5" style="stroke:#181818;stroke-width:0.5;" width="281.177" x="22.5" y="44.602"/><ellipse cx="87.1798" cy="60.602" fill="#ADD1B2" rx="11" ry="11" style="stroke:#181818;stroke-width:1.0;"/><path d="M86.6485,67.5239 Q84.8985,67.5239 83.7579,66.7895 Q82.6329,66.0395 82.0704,64.6957 Q81.5235,63.3364 81.5235,61.5395 Q81.5235,59.5082 82.1798,58.0551 Q82.836,56.602 84.1173,55.8207 Q85.3985,55.0395 87.2735,55.0395 Q88.1642,55.0395 88.836,55.227 Q89.5079,55.3989 90.1954,55.7426 L89.3829,57.7582 Q88.7579,57.4457 88.211,57.3207 Q87.6798,57.1957 87.1954,57.1957 Q86.0235,57.1957 85.3204,57.727 Q84.6173,58.2582 84.3204,59.2114 Q84.0235,60.1645 84.0235,61.4301 Q84.0235,63.4457 84.7423,64.4145 Q85.461,65.3676 87.0548,65.3676 Q87.6485,65.3676 88.2735,65.2114 Q88.8985,65.0551 89.7267,64.6801 L89.7267,66.8989 Q88.9923,67.2114 88.1954,67.3676 Q87.4142,67.5239 86.6485,67.5239 Z " fill="#000000"/><text fill="#000000" font-family="sans-serif" font-size="14" lengthAdjust="spacing" textLength="143.3175" x="107.6798" y="66.034">TransactionController</text><line style="stroke:#181818;stroke-width:0.5;" x1="23.5" x2="302.677" y1="76.602" y2="76.602"/><rect fill="none" height="6" style="stroke:#C82930;stroke-width:1.0;" width="6" x="30.5" y="88.6359"/><text fill="#000000" font-family="sans-serif" font-size="14" lengthAdjust="spacing" textLength="173.2073" x="42.5" y="95.5679">TransactionService service</text><line style="stroke:#181818;stroke-width:0.5;" x1="23.5" x2="302.677" y1="103.6699" y2="103.6699"/><ellipse cx="33.5" cy="118.7039" fill="#84BE84" rx="3" ry="3" style="stroke:#038048;stroke-width:1.0;"/><text fill="#000000" font-family="sans-serif" font-size="14" lengthAdjust="spacing" textLength="129.9755" x="42.5" y="122.6358">getAllTransactions()</text><ellipse cx="33.5" cy="137.7718" fill="#84BE84" rx="3" ry="3" style="stroke:#038048;stroke-width:1.0;"/><text fill="#000000" font-family="sans-serif" font-size="14" lengthAdjust="spacing" textLength="148.9174" x="42.5" y="141.7038">getTransactionById(id)</text><ellipse cx="33.5" cy="156.8397" fill="#84BE84" rx="3" ry="3" style="stroke:#038048;stroke-width:1.0;"/><text fill="#000000" font-family="sans-serif" font-size="14" lengthAdjust="spacing" textLength="230.0891" x="42.5" y="160.7717">createTransaction(transactionDTO)</text><ellipse cx="33.5" cy="175.9076" fill="#84BE84" rx="3" ry="3" style="stroke:#038048;stroke-width:1.0;"/><text fill="#000000" font-family="sans-serif" font-size="14" lengthAdjust="spacing" textLength="255.177" x="42.5" y="179.8396">updateTransaction(id, transactionDTO)</text><ellipse cx="33.5" cy="194.9755" fill="#84BE84" rx="3" ry="3" style="stroke:#038048;stroke-width:1.0;"/><text fill="#000000" font-family="sans-serif" font-size="14" lengthAdjust="spacing" textLength="138.7255" x="42.5" y="198.9075">deleteTransaction(id)</text></g><!--class BankAccountService--><g id="elem_BankAccountService"><rect codeLine="57" fill="#F1F1F1" height="48" id="BankAccountService" rx="2.5" ry="2.5" style="stroke:#181818;stroke-width:0.5;" width="164.9995" x="1291.5" y="284.602"/><ellipse cx="1306.5" cy="300.602" fill="#ADD1B2" rx="11" ry="11" style="stroke:#181818;stroke-width:1.0;"/><path d="M1305.9688,307.5239 Q1304.2188,307.5239 1303.0781,306.7895 Q1301.9531,306.0395 1301.3906,304.6957 Q1300.8438,303.3364 1300.8438,301.5395 Q1300.8438,299.5082 1301.5,298.0551 Q1302.1563,296.602 1303.4375,295.8207 Q1304.7188,295.0395 1306.5938,295.0395 Q1307.4844,295.0395 1308.1563,295.227 Q1308.8281,295.3989 1309.5156,295.7426 L1308.7031,297.7582 Q1308.0781,297.4457 1307.5313,297.3207 Q1307,297.1957 1306.5156,297.1957 Q1305.3438,297.1957 1304.6406,297.727 Q1303.9375,298.2582 1303.6406,299.2114 Q1303.3438,300.1645 1303.3438,301.4301 Q1303.3438,303.4457 1304.0625,304.4145 Q1304.7813,305.3676 1306.375,305.3676 Q1306.9688,305.3676 1307.5938,305.2114 Q1308.2188,305.0551 1309.0469,304.6801 L1309.0469,306.8989 Q1308.3125,307.2114 1307.5156,307.3676 Q1306.7344,307.5239 1305.9688,307.5239 Z " fill="#000000"/><text fill="#000000" font-family="sans-serif" font-size="14" lengthAdjust="spacing" textLength="132.9995" x="1320.5" y="306.034">BankAccountService</text><line style="stroke:#181818;stroke-width:0.5;" x1="1292.5" x2="1455.4995" y1="316.602" y2="316.602"/><line style="stroke:#181818;stroke-width:0.5;" x1="1292.5" x2="1455.4995" y1="324.602" y2="324.602"/></g><!--class BankEmployeeService--><g id="elem_BankEmployeeService"><rect codeLine="58" fill="#F1F1F1" height="48" id="BankEmployeeService" rx="2.5" ry="2.5" style="stroke:#181818;stroke-width:0.5;" width="176.2834" x="1080" y="284.602"/><ellipse cx="1095" cy="300.602" fill="#ADD1B2" rx="11" ry="11" style="stroke:#181818;stroke-width:1.0;"/><path d="M1094.4688,307.5239 Q1092.7188,307.5239 1091.5781,306.7895 Q1090.4531,306.0395 1089.8906,304.6957 Q1089.3438,303.3364 1089.3438,301.5395 Q1089.3438,299.5082 1090,298.0551 Q1090.6563,296.602 1091.9375,295.8207 Q1093.2188,295.0395 1095.0938,295.0395 Q1095.9844,295.0395 1096.6563,295.227 Q1097.3281,295.3989 1098.0156,295.7426 L1097.2031,297.7582 Q1096.5781,297.4457 1096.0313,297.3207 Q1095.5,297.1957 1095.0156,297.1957 Q1093.8438,297.1957 1093.1406,297.727 Q1092.4375,298.2582 1092.1406,299.2114 Q1091.8438,300.1645 1091.8438,301.4301 Q1091.8438,303.4457 1092.5625,304.4145 Q1093.2813,305.3676 1094.875,305.3676 Q1095.4688,305.3676 1096.0938,305.2114 Q1096.7188,305.0551 1097.5469,304.6801 L1097.5469,306.8989 Q1096.8125,307.2114 1096.0156,307.3676 Q1095.2344,307.5239 1094.4688,307.5239 Z " fill="#000000"/><text fill="#000000" font-family="sans-serif" font-size="14" lengthAdjust="spacing" textLength="144.2834" x="1109" y="306.034">BankEmployeeService</text><line style="stroke:#181818;stroke-width:0.5;" x1="1081" x2="1255.2834" y1="316.602" y2="316.602"/><line style="stroke:#181818;stroke-width:0.5;" x1="1081" x2="1255.2834" y1="324.602" y2="324.602"/></g><!--class BankEntityService--><g id="elem_BankEntityService"><rect codeLine="59" fill="#F1F1F1" height="48" id="BankEntityService" rx="2.5" ry="2.5" style="stroke:#181818;stroke-width:0.5;" width="149.0815" x="896.5" y="284.602"/><ellipse cx="911.5" cy="300.602" fill="#ADD1B2" rx="11" ry="11" style="stroke:#181818;stroke-width:1.0;"/><path d="M910.9688,307.5239 Q909.2188,307.5239 908.0781,306.7895 Q906.9531,306.0395 906.3906,304.6957 Q905.8438,303.3364 905.8438,301.5395 Q905.8438,299.5082 906.5,298.0551 Q907.1563,296.602 908.4375,295.8207 Q909.7188,295.0395 911.5938,295.0395 Q912.4844,295.0395 913.1563,295.227 Q913.8281,295.3989 914.5156,295.7426 L913.7031,297.7582 Q913.0781,297.4457 912.5313,297.3207 Q912,297.1957 911.5156,297.1957 Q910.3438,297.1957 909.6406,297.727 Q908.9375,298.2582 908.6406,299.2114 Q908.3438,300.1645 908.3438,301.4301 Q908.3438,303.4457 909.0625,304.4145 Q909.7813,305.3676 911.375,305.3676 Q911.9688,305.3676 912.5938,305.2114 Q913.2188,305.0551 914.0469,304.6801 L914.0469,306.8989 Q913.3125,307.2114 912.5156,307.3676 Q911.7344,307.5239 910.9688,307.5239 Z " fill="#000000"/><text fill="#000000" font-family="sans-serif" font-size="14" lengthAdjust="spacing" textLength="117.0815" x="925.5" y="306.034">BankEntityService</text><line style="stroke:#181818;stroke-width:0.5;" x1="897.5" x2="1044.5815" y1="316.602" y2="316.602"/><line style="stroke:#181818;stroke-width:0.5;" x1="897.5" x2="1044.5815" y1="324.602" y2="324.602"/></g><!--class CustomerService--><g id="elem_CustomerService"><rect codeLine="60" fill="#F1F1F1" height="48" id="CustomerService" rx="2.5" ry="2.5" style="stroke:#181818;stroke-width:0.5;" width="143.2016" x="718.5" y="284.602"/><ellipse cx="733.5" cy="300.602" fill="#ADD1B2" rx="11" ry="11" style="stroke:#181818;stroke-width:1.0;"/><path d="M732.9688,307.5239 Q731.2188,307.5239 730.0781,306.7895 Q728.9531,306.0395 728.3906,304.6957 Q727.8438,303.3364 727.8438,301.5395 Q727.8438,299.5082 728.5,298.0551 Q729.1563,296.602 730.4375,295.8207 Q731.7188,295.0395 733.5938,295.0395 Q734.4844,295.0395 735.1563,295.227 Q735.8281,295.3989 736.5156,295.7426 L735.7031,297.7582 Q735.0781,297.4457 734.5313,297.3207 Q734,297.1957 733.5156,297.1957 Q732.3438,297.1957 731.6406,297.727 Q730.9375,298.2582 730.6406,299.2114 Q730.3438,300.1645 730.3438,301.4301 Q730.3438,303.4457 731.0625,304.4145 Q731.7813,305.3676 733.375,305.3676 Q733.9688,305.3676 734.5938,305.2114 Q735.2188,305.0551 736.0469,304.6801 L736.0469,306.8989 Q735.3125,307.2114 734.5156,307.3676 Q733.7344,307.5239 732.9688,307.5239 Z " fill="#000000"/><text fill="#000000" font-family="sans-serif" font-size="14" lengthAdjust="spacing" textLength="111.2016" x="747.5" y="306.034">CustomerService</text><line style="stroke:#181818;stroke-width:0.5;" x1="719.5" x2="860.7016" y1="316.602" y2="316.602"/><line style="stroke:#181818;stroke-width:0.5;" x1="719.5" x2="860.7016" y1="324.602" y2="324.602"/></g><!--class TransactionService--><g id="elem_TransactionService"><rect codeLine="61" fill="#F1F1F1" height="48" id="TransactionService" rx="2.5" ry="2.5" style="stroke:#181818;stroke-width:0.5;" width="155.8435" x="527" y="284.602"/><ellipse cx="542" cy="300.602" fill="#ADD1B2" rx="11" ry="11" style="stroke:#181818;stroke-width:1.0;"/><path d="M541.4688,307.5239 Q539.7188,307.5239 538.5781,306.7895 Q537.4531,306.0395 536.8906,304.6957 Q536.3438,303.3364 536.3438,301.5395 Q536.3438,299.5082 537,298.0551 Q537.6563,296.602 538.9375,295.8207 Q540.2188,295.0395 542.0938,295.0395 Q542.9844,295.0395 543.6563,295.227 Q544.3281,295.3989 545.0156,295.7426 L544.2031,297.7582 Q543.5781,297.4457 543.0313,297.3207 Q542.5,297.1957 542.0156,297.1957 Q540.8438,297.1957 540.1406,297.727 Q539.4375,298.2582 539.1406,299.2114 Q538.8438,300.1645 538.8438,301.4301 Q538.8438,303.4457 539.5625,304.4145 Q540.2813,305.3676 541.875,305.3676 Q542.4688,305.3676 543.0938,305.2114 Q543.7188,305.0551 544.5469,304.6801 L544.5469,306.8989 Q543.8125,307.2114 543.0156,307.3676 Q542.2344,307.5239 541.4688,307.5239 Z " fill="#000000"/><text fill="#000000" font-family="sans-serif" font-size="14" lengthAdjust="spacing" textLength="123.8435" x="556" y="306.034">TransactionService</text><line style="stroke:#181818;stroke-width:0.5;" x1="528" x2="681.8435" y1="316.602" y2="316.602"/><line style="stroke:#181818;stroke-width:0.5;" x1="528" x2="681.8435" y1="324.602" y2="324.602"/></g><!--link BankAccountController to BankAccountService--><g id="link_BankAccountController_BankAccountService"><path codeLine="64" d="M1474.82,206.782 C1446.64,234.962 1421.3526,260.2493 1401.5926,280.0093 " fill="none" id="BankAccountController-to-BankAccountService" style="stroke:#181818;stroke-width:1.0;"/><polygon fill="#181818" points="1397.35,284.252,1406.5424,280.7164,1400.8855,280.7164,1400.8855,275.0596,1397.35,284.252" style="stroke:#181818;stroke-width:1.0;"/></g><!--link BankEmployeeController to BankEmployeeService--><g id="link_BankEmployeeController_BankEmployeeService"><path codeLine="65" d="M1226.49,206.782 C1210.14,234.962 1196.0221,259.3028 1184.5521,279.0628 " fill="none" id="BankEmployeeController-to-BankEmployeeService" style="stroke:#181818;stroke-width:1.0;"/><polygon fill="#181818" points="1181.54,284.252,1189.5176,278.4764,1184.0501,279.9277,1182.5987,274.4602,1181.54,284.252" style="stroke:#181818;stroke-width:1.0;"/></g><!--link BankEntityController to BankEntityService--><g id="link_BankEntityController_BankEntityService"><path codeLine="66" d="M993.28,206.782 C987.05,234.962 981.8256,258.6335 977.4556,278.3935 " fill="none" id="BankEntityController-to-BankEntityService" style="stroke:#181818;stroke-width:1.0;"/><polygon fill="#181818" points="976.16,284.252,982.0091,276.3281,977.2397,279.3699,974.1978,274.6006,976.16,284.252" style="stroke:#181818;stroke-width:1.0;"/></g><!--link CustomerController to CustomerService--><g id="link_CustomerController_CustomerService"><path codeLine="67" d="M767.72,206.782 C773.95,234.962 779.1744,258.6335 783.5444,278.3935 " fill="none" id="CustomerController-to-CustomerService" style="stroke:#181818;stroke-width:1.0;"/><polygon fill="#181818" points="784.84,284.252,786.8022,274.6006,783.7603,279.3699,778.9909,276.3281,784.84,284.252" style="stroke:#181818;stroke-width:1.0;"/></g><!--link InternalTransactionController to TransactionService--><g id="link_InternalTransactionController_TransactionService"><path codeLine="68" d="M510.88,187.632 C536.96,220.882 564.0268,255.3712 583.0968,279.6812 " fill="none" id="InternalTransactionController-to-TransactionService" style="stroke:#181818;stroke-width:1.0;"/><polygon fill="#181818" points="586.8,284.402,584.3923,274.8519,583.714,280.468,578.0979,279.7896,586.8,284.402" style="stroke:#181818;stroke-width:1.0;"/></g><!--link TransactionController to TransactionService--><g id="link_TransactionController_TransactionService"><path codeLine="69" d="M276.51,206.852 C291.42,215.592 306.81,223.772 322,230.602 C388.3,260.402 462.7802,279.6687 520.9002,291.9787 " fill="none" id="TransactionController-to-TransactionService" style="stroke:#181818;stroke-width:1.0;"/><polygon fill="#181818" points="526.77,293.222,518.7942,287.4439,521.8785,292.1859,517.1365,295.2703,526.77,293.222" style="stroke:#181818;stroke-width:1.0;"/></g><!--SRC=[fPJBQiCm44Nt-GgHbKlhNoZaKMXMXIPqhyf3455a8ya5K_hlZIpB6LbZG-acTkOUatiYMGqN5tu6jjxLsfbQAJ1spRvNZ0d5hMLRhYyR8UfMkplHvuoLE3s2-P82c0tN7dXaPt0RfGR45Wze76RRxb0Lieg1CC0T35d1mtL_UejvsrGebzKJovaA5636ptzMYT7BjL5r1p2Z5ECbfyWaKd58MiMmWE4cyne9BqPGmGnHb9fsqdLpOdsufEMfHCaFI1qV59-tZqoZJxp290trXtHIVTTQLr_14CLZj5GxCadrE2Jhnx0GmqscCH9UXQ223g8cIWVjm6YkJePhouMJjIRiK4e9bkmTh3lvpN2hn0pwSXSbVcal3GYdEkHDWn-IlphNvFN_LJkk2yAIfK5pSdLGNZXaDLqZpFbbejcmKYaRR6- -JJm11u-vu-yuwkNd29dXTotRvzDv_d_wRlJfMvRFLB6PWotIqwxaOJ72INdYvVJWr6Lvm_id2Ci_mRy0]--></g></svg>