<svg xmlns="http://www.w3.org/2000/svg" xmlns:xlink="http://www.w3.org/1999/xlink" contentStyleType="text/css" height="557px" preserveAspectRatio="none" style="width:507px;height:557px;background:#FFFFFF;" version="1.1" viewBox="0 0 507 557" width="507px" zoomAndPan="magnify"><defs/><g><!--class BE--><g id="elem_BE"><rect codeLine="1" fill="#F1F1F1" height="145.7813" id="BE" rx="2.5" ry="2.5" style="stroke:#181818;stroke-width:0.5;" width="167.75" x="7" y="7"/><ellipse cx="48.8712" cy="23" fill="#ADD1B2" rx="11" ry="11" style="stroke:#181818;stroke-width:1;"/><path d="M52.9806,29 L45.2619,29 L45.2619,16.6094 L52.9806,16.6094 L52.9806,18.7656 L47.715,18.7656 L47.715,21.4375 L52.4806,21.4375 L52.4806,23.5938 L47.715,23.5938 L47.715,26.8438 L52.9806,26.8438 L52.9806,29 Z " fill="#000000"/><text fill="#000000" font-family="sans-serif" font-size="14" lengthAdjust="spacing" textLength="76.0361" x="68.8426" y="27.8467">BankEntity</text><line style="stroke:#181818;stroke-width:0.5;" x1="8" x2="173.75" y1="39" y2="39"/><ellipse cx="18" cy="52.6484" fill="#000000" rx="3" ry="3" style="stroke:#000000;stroke-width:1;"/><text fill="#000000" font-family="sans-serif" font-size="14" lengthAdjust="spacing" textLength="46.7783" x="27" y="55.9951">ID : int</text><line style="stroke:#181818;stroke-width:1;" x1="8" x2="173.75" y1="63.2969" y2="63.2969"/><text fill="#000000" font-family="sans-serif" font-size="14" lengthAdjust="spacing" textLength="109.7373" x="13" y="80.292">Nombre : string</text><text fill="#000000" font-family="sans-serif" font-size="14" lengthAdjust="spacing" textLength="152.8379" x="13" y="96.5889">Codigo_SWIFT : string</text><text fill="#000000" font-family="sans-serif" font-size="14" lengthAdjust="spacing" textLength="82.0107" x="13" y="112.8857">Pais : string</text><text fill="#000000" font-family="sans-serif" font-size="14" lengthAdjust="spacing" textLength="155.75" x="13" y="129.1826">Fecha_Creacion : date</text><text fill="#000000" font-family="sans-serif" font-size="14" lengthAdjust="spacing" textLength="101.4658" x="13" y="145.4795">Estado : string</text></g><!--class BA--><g id="elem_BA"><rect codeLine="11" fill="#F1F1F1" height="145.7813" id="BA" rx="2.5" ry="2.5" style="stroke:#181818;stroke-width:0.5;" width="178.9268" x="212.5" y="214"/><ellipse cx="252.2456" cy="230" fill="#ADD1B2" rx="11" ry="11" style="stroke:#181818;stroke-width:1;"/><path d="M256.355,236 L248.6362,236 L248.6362,223.6094 L256.355,223.6094 L256.355,225.7656 L251.0894,225.7656 L251.0894,228.4375 L255.855,228.4375 L255.855,230.5938 L251.0894,230.5938 L251.0894,233.8438 L256.355,233.8438 L256.355,236 Z " fill="#000000"/><text fill="#000000" font-family="sans-serif" font-size="14" lengthAdjust="spacing" textLength="91.9365" x="271.7446" y="234.8467">BankAccount</text><line style="stroke:#181818;stroke-width:0.5;" x1="213.5" x2="390.4268" y1="246" y2="246"/><ellipse cx="223.5" cy="259.6484" fill="#000000" rx="3" ry="3" style="stroke:#000000;stroke-width:1;"/><text fill="#000000" font-family="sans-serif" font-size="14" lengthAdjust="spacing" textLength="46.7783" x="232.5" y="262.9951">ID : int</text><line style="stroke:#181818;stroke-width:1;" x1="213.5" x2="390.4268" y1="270.2969" y2="270.2969"/><text fill="#000000" font-family="sans-serif" font-size="14" lengthAdjust="spacing" textLength="166.9268" x="218.5" y="287.292">Numero_Cuenta : string</text><text fill="#000000" font-family="sans-serif" font-size="14" lengthAdjust="spacing" textLength="140.9023" x="218.5" y="303.5889">Tipo_Cuenta : string</text><text fill="#000000" font-family="sans-serif" font-size="14" lengthAdjust="spacing" textLength="107.6182" x="218.5" y="319.8857">Saldo : decimal</text><text fill="#000000" font-family="sans-serif" font-size="14" lengthAdjust="spacing" textLength="109.4023" x="218.5" y="336.1826">Moneda : string</text><text fill="#000000" font-family="sans-serif" font-size="14" lengthAdjust="spacing" textLength="101.4658" x="218.5" y="352.4795">Estado : string</text></g><!--class C--><g id="elem_C"><rect codeLine="21" fill="#F1F1F1" height="145.7813" id="C" rx="2.5" ry="2.5" style="stroke:#181818;stroke-width:0.5;" width="196.1602" x="210" y="7"/><ellipse cx="269.8281" cy="23" fill="#ADD1B2" rx="11" ry="11" style="stroke:#181818;stroke-width:1;"/><path d="M273.9375,29 L266.2188,29 L266.2188,16.6094 L273.9375,16.6094 L273.9375,18.7656 L268.6719,18.7656 L268.6719,21.4375 L273.4375,21.4375 L273.4375,23.5938 L268.6719,23.5938 L268.6719,26.8438 L273.9375,26.8438 L273.9375,29 Z " fill="#000000"/><text fill="#000000" font-family="sans-serif" font-size="14" lengthAdjust="spacing" textLength="68.0039" x="290.3281" y="27.8467">Customer</text><line style="stroke:#181818;stroke-width:0.5;" x1="211" x2="405.1602" y1="39" y2="39"/><ellipse cx="221" cy="52.6484" fill="#000000" rx="3" ry="3" style="stroke:#000000;stroke-width:1;"/><text fill="#000000" font-family="sans-serif" font-size="14" lengthAdjust="spacing" textLength="46.7783" x="230" y="55.9951">ID : int</text><line style="stroke:#181818;stroke-width:1;" x1="211" x2="405.1602" y1="63.2969" y2="63.2969"/><text fill="#000000" font-family="sans-serif" font-size="14" lengthAdjust="spacing" textLength="184.1602" x="216" y="80.292">Nombre_Completo : string</text><text fill="#000000" font-family="sans-serif" font-size="14" lengthAdjust="spacing" textLength="147.8066" x="216" y="96.5889">Identificacion : string</text><text fill="#000000" font-family="sans-serif" font-size="14" lengthAdjust="spacing" textLength="119.5674" x="216" y="112.8857">Direccion : string</text><text fill="#000000" font-family="sans-serif" font-size="14" lengthAdjust="spacing" textLength="114.4063" x="216" y="129.1826">Telefono : string</text><text fill="#000000" font-family="sans-serif" font-size="14" lengthAdjust="spacing" textLength="100.8369" x="216" y="145.4795">Correo : string</text></g><!--class T--><g id="elem_T"><rect codeLine="31" fill="#F1F1F1" height="129.4844" id="T" rx="2.5" ry="2.5" style="stroke:#181818;stroke-width:0.5;" width="124.3828" x="240" y="421"/><ellipse cx="259.6059" cy="437" fill="#ADD1B2" rx="11" ry="11" style="stroke:#181818;stroke-width:1;"/><path d="M263.7153,443 L255.9965,443 L255.9965,430.6094 L263.7153,430.6094 L263.7153,432.7656 L258.4497,432.7656 L258.4497,435.4375 L263.2153,435.4375 L263.2153,437.5938 L258.4497,437.5938 L258.4497,440.8438 L263.7153,440.8438 L263.7153,443 Z " fill="#000000"/><text fill="#000000" font-family="sans-serif" font-size="14" lengthAdjust="spacing" textLength="82.1475" x="274.6294" y="441.8467">Transaction</text><line style="stroke:#181818;stroke-width:0.5;" x1="241" x2="363.3828" y1="453" y2="453"/><ellipse cx="251" cy="466.6484" fill="#000000" rx="3" ry="3" style="stroke:#000000;stroke-width:1;"/><text fill="#000000" font-family="sans-serif" font-size="14" lengthAdjust="spacing" textLength="46.7783" x="260" y="469.9951">ID : int</text><line style="stroke:#181818;stroke-width:1;" x1="241" x2="363.3828" y1="477.2969" y2="477.2969"/><text fill="#000000" font-family="sans-serif" font-size="14" lengthAdjust="spacing" textLength="112.3828" x="246" y="494.292">Monto : decimal</text><text fill="#000000" font-family="sans-serif" font-size="14" lengthAdjust="spacing" textLength="83.6992" x="246" y="510.5889">Tipo : string</text><text fill="#000000" font-family="sans-serif" font-size="14" lengthAdjust="spacing" textLength="87.001" x="246" y="526.8857">Fecha : date</text><text fill="#000000" font-family="sans-serif" font-size="14" lengthAdjust="spacing" textLength="101.4658" x="246" y="543.1826">Estado : string</text></g><!--class BEmp--><g id="elem_BEmp"><rect codeLine="40" fill="#F1F1F1" height="113.1875" id="BEmp" rx="2.5" ry="2.5" style="stroke:#181818;stroke-width:0.5;" width="158.1182" x="12" y="230.5"/><ellipse cx="36.7277" cy="246.5" fill="#ADD1B2" rx="11" ry="11" style="stroke:#181818;stroke-width:1;"/><path d="M40.8371,252.5 L33.1184,252.5 L33.1184,240.1094 L40.8371,240.1094 L40.8371,242.2656 L35.5715,242.2656 L35.5715,244.9375 L40.3371,244.9375 L40.3371,247.0938 L35.5715,247.0938 L35.5715,250.3438 L40.8371,250.3438 L40.8371,252.5 Z " fill="#000000"/><text fill="#000000" font-family="sans-serif" font-size="14" lengthAdjust="spacing" textLength="104.501" x="52.8895" y="251.3467">BankEmployee</text><line style="stroke:#181818;stroke-width:0.5;" x1="13" x2="169.1182" y1="262.5" y2="262.5"/><ellipse cx="23" cy="276.1484" fill="#000000" rx="3" ry="3" style="stroke:#000000;stroke-width:1;"/><text fill="#000000" font-family="sans-serif" font-size="14" lengthAdjust="spacing" textLength="46.7783" x="32" y="279.4951">ID : int</text><line style="stroke:#181818;stroke-width:1;" x1="13" x2="169.1182" y1="286.7969" y2="286.7969"/><text fill="#000000" font-family="sans-serif" font-size="14" lengthAdjust="spacing" textLength="109.7373" x="18" y="303.792">Nombre : string</text><text fill="#000000" font-family="sans-serif" font-size="14" lengthAdjust="spacing" textLength="75.9883" x="18" y="320.0889">Rol : string</text><text fill="#000000" font-family="sans-serif" font-size="14" lengthAdjust="spacing" textLength="146.1182" x="18" y="336.3857">Fecha_Ingreso : date</text></g><!--link BE to BA--><g id="link_BE_BA"><path codeLine="48" d="M171.1288,158.8537 C191.2988,178.4437 194.491,181.5458 214.661,201.1458 " fill="none" id="BE-BA" style="stroke:#181818;stroke-width:1;"/><line style="stroke:#181818;stroke-width:1;" x1="165.4725" x2="171.0463" y1="158.9363" y2="153.1975"/><line style="stroke:#181818;stroke-width:1;" x1="167.6245" x2="173.1983" y1="161.0264" y2="155.2876"/><line style="stroke:#181818;stroke-width:1;" x1="171.1288" x2="165.39" y1="158.8537" y2="153.28"/><line style="stroke:#181818;stroke-width:1;" x1="221.8327" x2="231.7514" y1="208.1148" y2="209.387"/><line style="stroke:#181818;stroke-width:1;" x1="221.8327" x2="223.3886" y1="208.1148" y2="217.993"/><line style="stroke:#181818;stroke-width:1;" x1="221.8327" x2="227.57" y1="208.1148" y2="213.69"/><ellipse cx="217.5297" cy="203.9334" fill="none" rx="4" ry="4" style="stroke:#181818;stroke-width:1;"/></g><!--link C to BA--><g id="link_C_BA"><path codeLine="49" d="M305.6473,161.2766 C305.0773,180.8666 305.2132,176.0976 304.6432,195.6976 " fill="none" id="C-BA" style="stroke:#181818;stroke-width:1;"/><line style="stroke:#181818;stroke-width:1;" x1="301.7654" x2="309.762" y1="157.162" y2="157.3946"/><line style="stroke:#181818;stroke-width:1;" x1="301.6781" x2="309.6747" y1="160.1607" y2="160.3934"/><line style="stroke:#181818;stroke-width:1;" x1="305.6473" x2="305.88" y1="161.2766" y2="153.28"/><line style="stroke:#181818;stroke-width:1;" x1="304.3526" x2="310.1175" y1="205.6934" y2="213.8644"/><line style="stroke:#181818;stroke-width:1;" x1="304.3526" x2="298.1225" y1="205.6934" y2="213.5156"/><line style="stroke:#181818;stroke-width:1;" x1="304.3526" x2="304.12" y1="205.6934" y2="213.69"/><ellipse cx="304.527" cy="199.6959" fill="none" rx="4" ry="4" style="stroke:#181818;stroke-width:1;"/></g><!--link BA to T--><g id="link_BA_T"><path codeLine="50" d="M302,368.05 C302,387.99 302,383.48 302,402.89 " fill="none" id="BA-T" style="stroke:#181818;stroke-width:1;"/><line style="stroke:#181818;stroke-width:1;" x1="298" x2="306" y1="364.05" y2="364.05"/><line style="stroke:#181818;stroke-width:1;" x1="298" x2="306" y1="367.05" y2="367.05"/><line style="stroke:#181818;stroke-width:1;" x1="302" x2="302" y1="368.05" y2="360.05"/><line style="stroke:#181818;stroke-width:1;" x1="302" x2="308" y1="412.89" y2="420.89"/><line style="stroke:#181818;stroke-width:1;" x1="302" x2="296" y1="412.89" y2="420.89"/><line style="stroke:#181818;stroke-width:1;" x1="302" x2="302" y1="412.89" y2="420.89"/><ellipse cx="302" cy="406.89" fill="none" rx="4" ry="4" style="stroke:#181818;stroke-width:1;"/></g><!--link BE to BEmp--><g id="link_BE_BEmp"><path codeLine="51" d="M91,161.28 C91,186.64 91,188.71 91,212.48 " fill="none" id="BE-BEmp" style="stroke:#181818;stroke-width:1;"/><line style="stroke:#181818;stroke-width:1;" x1="87" x2="95" y1="157.28" y2="157.28"/><line style="stroke:#181818;stroke-width:1;" x1="87" x2="95" y1="160.28" y2="160.28"/><line style="stroke:#181818;stroke-width:1;" x1="91" x2="91" y1="161.28" y2="153.28"/><line style="stroke:#181818;stroke-width:1;" x1="91" x2="97" y1="222.48" y2="230.48"/><line style="stroke:#181818;stroke-width:1;" x1="91" x2="85" y1="222.48" y2="230.48"/><line style="stroke:#181818;stroke-width:1;" x1="91" x2="91" y1="222.48" y2="230.48"/><ellipse cx="91" cy="216.48" fill="none" rx="4" ry="4" style="stroke:#181818;stroke-width:1;"/></g><!--link T to T--><g id="link_T_T"><path codeLine="52" d="M382.0383,468.1287 C401.5783,468.3987 399,474.03 399,485.5 C399,496.97 401.5783,502.6013 382.0383,502.8713 " fill="none" id="T-T" style="stroke:#181818;stroke-width:1;"/><line style="stroke:#181818;stroke-width:1;" x1="372.0392" x2="363.9571" y1="467.9905" y2="473.8794"/><line style="stroke:#181818;stroke-width:1;" x1="372.0392" x2="364.1229" y1="467.9905" y2="461.8806"/><line style="stroke:#181818;stroke-width:1;" x1="372.0392" x2="364.04" y1="467.9905" y2="467.88"/><ellipse cx="378.0387" cy="468.0734" fill="none" rx="4" ry="4" style="stroke:#181818;stroke-width:1;"/><line style="stroke:#181818;stroke-width:1;" x1="372.0392" x2="364.1229" y1="503.0095" y2="509.1194"/><line style="stroke:#181818;stroke-width:1;" x1="372.0392" x2="363.9571" y1="503.0095" y2="497.1206"/><line style="stroke:#181818;stroke-width:1;" x1="372.0392" x2="364.04" y1="503.0095" y2="503.12"/><ellipse cx="378.0387" cy="502.9266" fill="none" rx="4" ry="4" style="stroke:#181818;stroke-width:1;"/><text fill="#000000" font-family="sans-serif" font-size="13" lengthAdjust="spacing" textLength="89.1465" x="405" y="490.0669">Transferencia</text></g><!--SRC=[ZL91ReCm4Bpp2Yl7IdoWjyGX4eTMKMEfHxGr2xKANcIRGvJaxzr0qfg6HhcWzUooCnuFsc32NYnMOB-oeLu8y6ALYKCYn5E-5i_2sC1rclBdbTeFXupvu8oj6P5KcfgAtNk-KJ6-1UFZymRr9nJI8MX3bZib16Gyym5A-fqy9Gb6cfPQKs_3A6hvZwY-HKU5xFb7Y3cLwURW7JG3OudQjD0mya8MoydC7Lcozu6OST0ax_bKI6gx1WF5c_FolAWo-ch4JsTj7Eg_eC86Ax8qzTmvd1Ud75WFEl2MGP-QrySN3bCBpbxTlDV3pvJnFMcFU0bFspqQdpTgRbEIszgXfoixSt4UZySqfGE7895HpPcu75Gyn0eI9KuqTdZHQ4o53gqsiFW6]--></g></svg>